<?xml version="1.0" encoding="UTF-8" standalone="no"?> <svg id="icons" xmlns="http://www.w3.org/2000/svg" viewBox="0 0 340 340"><path d="M112.087,137.432c0,6.435,2.427,10.776,5.353,13.671a14.246,14.246,0,0,0,20.1,0c2.927-2.9,5.353-7.236,5.353-13.671Z" style="fill:#c7e2ff"/><path d="M316.314,315.029H254.78a23.256,23.256,0,0,0-14.031,0H220.386c-4.3-1.778-9.02-1.589-14.03,0H133.644c-4.972-2.251-9.66-2.339-14.03,0H99.251c-4.35-3.123-9.067-2.737-14.031,0H23.686V208.111L170,202.34l146.314,5.771Z" style="fill:#ff8787"/><path d="M117.336,289.992V255.466a22.409,22.409,0,0,0-15.807,0v34.526a5.471,5.471,0,0,1-3.3,4.969A21.982,21.982,0,0,0,85.22,315.029H99.251a10.024,10.024,0,0,1,10.024-10.024h.314a10.024,10.024,0,0,1,10.025,10.024h14.03a21.983,21.983,0,0,0-13.006-20.068A5.47,5.47,0,0,1,117.336,289.992Z" style="fill:#fff"/><path d="M238.471,289.992V255.466a23.545,23.545,0,0,0-15.807,0v34.526a5.47,5.47,0,0,1-3.3,4.969,21.983,21.983,0,0,0-13.006,20.068h14.03a10.024,10.024,0,0,1,10.025-10.024h.314a10.024,10.024,0,0,1,10.024,10.024H254.78a21.982,21.982,0,0,0-13.007-20.068A5.471,5.471,0,0,1,238.471,289.992Z" style="fill:#fff"/><path d="M10,89.9H113.664a0,0,0,0,1,0,0v9.444a6.392,6.392,0,0,1-6.392,6.392H16.392A6.392,6.392,0,0,1,10,99.349V89.9A0,0,0,0,1,10,89.9Z" style="fill:#ff8787"/><path d="M226.336,89.9H330a0,0,0,0,1,0,0v9.444a6.392,6.392,0,0,1-6.392,6.392H232.727a6.392,6.392,0,0,1-6.392-6.392V89.9A0,0,0,0,1,226.336,89.9Z" style="fill:#ff8787"/><path d="M100.531,48.579l-.149-.131V30.208H88.214v18.24l-.149.131a20.952,20.952,0,0,0-7.133,15.749V89.905h26.732V64.328A20.952,20.952,0,0,0,100.531,48.579Z" style="fill:#97c27c"/><path d="M73.8,51.724l-.149-.131V39.766H61.482V51.593l-.149.131A20.951,20.951,0,0,0,54.2,67.473V89.905H80.932V67.473A20.954,20.954,0,0,0,73.8,51.724Z" style="fill:#97c27c"/><path d="M272.342,51.724l-.149-.131V39.766H260.025V51.593l-.149.131a20.954,20.954,0,0,0-7.133,15.749V89.905h26.732V67.473A20.951,20.951,0,0,0,272.342,51.724Z" style="fill:#97c27c"/><path d="M301.349,36.634V24.971H288.481V36.634c5.835,8.676,1.765,13.094-7.129,15.439a15.353,15.353,0,0,0-1.877,7.357V89.905h30.88V59.43a15.358,15.358,0,0,0-1.72-7.063C298.089,50.139,296.6,44.546,301.349,36.634Z" style="fill:#97c27c"/><path d="M35.7,48.455H34.375V25.445H23.424v23.01H22.1a5.852,5.852,0,0,0-5.853,5.853v35.6h25.3v-35.6A5.853,5.853,0,0,0,35.7,48.455Z" style="fill:#97c27c"/><rect x="23.686" y="187.824" width="292.629" height="20.287" style="fill:#bf4c4c"/><path d="M197.112,137.432c0,6.435,2.426,10.776,5.353,13.671a14.246,14.246,0,0,0,20.1,0c2.926-2.9,5.353-7.236,5.353-13.671Z" style="fill:#c7e2ff"/><path d="M10,172.85H330a0,0,0,0,1,0,0v11.662a8.445,8.445,0,0,1-8.445,8.445H18.445A8.445,8.445,0,0,1,10,184.513V172.85A0,0,0,0,1,10,172.85Z" style="fill:#ff8787"/><rect x="101.529" y="231.259" width="15.807" height="24.207" style="fill:#cbd2ed"/><rect x="222.664" y="231.259" width="15.807" height="24.207" style="fill:#cbd2ed"/><path d="M81.847,220.1h55.17a8.833,8.833,0,0,1,8.833,8.833v13.483a0,0,0,0,1,0,0H73.014a0,0,0,0,1,0,0V228.935A8.833,8.833,0,0,1,81.847,220.1Z" style="fill:#444457"/><path d="M202.983,220.1h55.17a8.833,8.833,0,0,1,8.833,8.833v13.483a0,0,0,0,1,0,0H194.149a0,0,0,0,1,0,0V228.935A8.833,8.833,0,0,1,202.983,220.1Z" style="fill:#444457"/><path d="M330,169.35H216.013V158.359a17.646,17.646,0,0,0,9.008-4.768c4.242-4.2,6.392-9.633,6.392-16.159a3.5,3.5,0,0,0-3.5-3.5h-30.8a3.5,3.5,0,0,0-3.5,3.5c0,6.526,2.151,11.964,6.393,16.159a17.634,17.634,0,0,0,9.009,4.768V169.35H130.988V158.359A17.653,17.653,0,0,0,140,153.591c4.241-4.2,6.392-9.633,6.392-16.159a3.5,3.5,0,0,0-3.5-3.5h-30.8a3.5,3.5,0,0,0-3.5,3.5c0,6.526,2.151,11.964,6.392,16.159a17.646,17.646,0,0,0,9.009,4.768V169.35H10a3.5,3.5,0,0,0-3.5,3.5v11.663a11.959,11.959,0,0,0,11.945,11.945h1.741V315.029a3.5,3.5,0,0,0,3.5,3.5H316.314a3.5,3.5,0,0,0,3.5-3.5V196.458h1.741A11.959,11.959,0,0,0,333.5,184.513V172.85A3.5,3.5,0,0,0,330,169.35ZM200.922,140.932H224.1a14.236,14.236,0,0,1-4,7.682,10.7,10.7,0,0,1-15.173,0A14.223,14.223,0,0,1,200.922,140.932Zm-85.025,0h23.181a14.223,14.223,0,0,1-4,7.682,10.7,10.7,0,0,1-15.172,0A14.231,14.231,0,0,1,115.9,140.932Zm6.758,170.6a13.55,13.55,0,0,0-13.066-10.024h-.314A13.549,13.549,0,0,0,96.21,311.529H89.056a18.525,18.525,0,0,1,10.6-13.374,9,9,0,0,0,5.372-8.163V245.917h8.807v44.075a9,9,0,0,0,5.371,8.163,18.526,18.526,0,0,1,10.6,13.374ZM76.514,238.917v-9.982a5.34,5.34,0,0,1,5.333-5.334h55.17a5.34,5.34,0,0,1,5.334,5.334v9.982ZM243.79,311.529a13.548,13.548,0,0,0-13.065-10.024h-.314a13.548,13.548,0,0,0-13.065,10.024H210.19a18.525,18.525,0,0,1,10.6-13.374,9,9,0,0,0,5.371-8.163V245.917h8.808v44.075a9,9,0,0,0,5.371,8.163,18.527,18.527,0,0,1,10.6,13.374Zm-46.141-72.612v-9.982a5.34,5.34,0,0,1,5.333-5.334h55.17a5.34,5.34,0,0,1,5.334,5.334v9.982Zm115.165,72.612H258.031A25.533,25.533,0,0,0,243.2,291.766a1.965,1.965,0,0,1-1.232-1.774V245.917h25.014a3.5,3.5,0,0,0,3.5-3.5V228.935A12.348,12.348,0,0,0,258.152,216.6h-55.17a12.348,12.348,0,0,0-12.333,12.334v13.482a3.5,3.5,0,0,0,3.5,3.5h25.015v44.075a1.967,1.967,0,0,1-1.232,1.774A25.534,25.534,0,0,0,203.1,311.529H136.9a25.531,25.531,0,0,0-14.827-19.763,1.967,1.967,0,0,1-1.232-1.774V245.917h25.015a3.5,3.5,0,0,0,3.5-3.5V228.935A12.348,12.348,0,0,0,137.017,216.6H81.847a12.348,12.348,0,0,0-12.333,12.334v13.482a3.5,3.5,0,0,0,3.5,3.5H98.029v44.075a1.966,1.966,0,0,1-1.233,1.774,25.533,25.533,0,0,0-14.827,19.763H27.186V196.458H312.814ZM326.5,184.513a4.951,4.951,0,0,1-4.945,4.945H18.445a4.951,4.951,0,0,1-4.945-4.945V176.35h313Z" style="fill:#444457"/><path d="M16.392,109.24h90.88a9.9,9.9,0,0,0,9.892-9.891V89.905a3.5,3.5,0,0,0-3.5-3.5h-2.5V64.328a24.455,24.455,0,0,0-7.282-17.41V30.208a3.5,3.5,0,0,0-3.5-3.5H88.214a3.5,3.5,0,0,0-3.5,3.5v16.71A24.417,24.417,0,0,0,80,53.441a24.486,24.486,0,0,0-2.847-3.378v-10.3a3.5,3.5,0,0,0-3.5-3.5H61.482a3.5,3.5,0,0,0-3.5,3.5v10.3A24.454,24.454,0,0,0,50.7,67.473V86.405H45.05v-32.1a9.37,9.37,0,0,0-7.175-9.1V25.445a3.5,3.5,0,0,0-3.5-3.5H23.424a3.5,3.5,0,0,0-3.5,3.5V45.211a9.369,9.369,0,0,0-7.174,9.1v32.1H10a3.5,3.5,0,0,0-3.5,3.5v9.444A9.9,9.9,0,0,0,16.392,109.24Zm93.772-9.891a2.9,2.9,0,0,1-2.892,2.891H16.392A2.9,2.9,0,0,1,13.5,99.349V93.405h96.664ZM84.432,64.328c0-4.307,2-10.858,5.444-14.392A6.485,6.485,0,0,0,91.714,45.4V33.708h5.168V45.769a6.371,6.371,0,0,0,1.634,4.321,19.882,19.882,0,0,1,5.648,14.238V86.405H84.432ZM57.7,67.473a17.452,17.452,0,0,1,5.938-13.116l.149-.13a3.5,3.5,0,0,0,1.2-2.634V43.266H70.15v8.327a3.5,3.5,0,0,0,1.195,2.634l.145.127a17.457,17.457,0,0,1,5.942,13.119V86.405H57.7ZM19.75,54.308A2.355,2.355,0,0,1,22.1,51.955h1.321a3.5,3.5,0,0,0,3.5-3.5V28.945h3.951v19.51a3.5,3.5,0,0,0,3.5,3.5H35.7a2.356,2.356,0,0,1,2.353,2.353v32.1H19.75Z" style="fill:#444457"/><path d="M330,86.405H313.854V59.43a18.733,18.733,0,0,0-5.529-13.342l-3.476-3.474V24.971a3.5,3.5,0,0,0-3.5-3.5H288.48a3.5,3.5,0,0,0-3.5,3.5V42.614l-3.475,3.474a18.823,18.823,0,0,0-4.023,5.949,24.489,24.489,0,0,0-1.789-1.974v-10.3a3.5,3.5,0,0,0-3.5-3.5H260.025a3.5,3.5,0,0,0-3.5,3.5v10.3a24.46,24.46,0,0,0-7.282,17.41V86.405H226.336a3.5,3.5,0,0,0-3.5,3.5v9.444a9.9,9.9,0,0,0,9.892,9.891h90.88a9.9,9.9,0,0,0,9.892-9.891V89.905A3.5,3.5,0,0,0,330,86.405ZM282.976,59.43a11.778,11.778,0,0,1,3.477-8.39l4.5-4.5a3.5,3.5,0,0,0,1.025-2.476V28.471h5.869V44.064a3.5,3.5,0,0,0,1.026,2.476l4.5,4.5a11.781,11.781,0,0,1,3.476,8.39V86.405H282.976Zm-26.733,8.043c0-3.484,3.5-9.775,5.65-13.3a11.221,11.221,0,0,0,1.632-5.84V43.266h5.168v5.065a11.221,11.221,0,0,0,1.632,5.84c2.147,3.527,5.651,9.818,5.651,13.3V86.405H256.243ZM326.5,99.349a2.9,2.9,0,0,1-2.892,2.891h-90.88a2.9,2.9,0,0,1-2.892-2.891V93.405H326.5Z" style="fill:#444457"/></svg>