<?xml version="1.0" encoding="UTF-8" standalone="no"?> <svg width="512" height="512" viewBox="0 0 512 512" fill="none" xmlns="http://www.w3.org/2000/svg">
<path d="M330.667 277.333C330.667 274.504 329.543 271.791 327.542 269.791C325.542 267.791 322.829 266.667 320 266.667H138.667C135.838 266.667 133.125 267.791 131.125 269.791C129.124 271.791 128 274.504 128 277.333V432H330.667V277.333Z" fill="#FAC100"/>
<path d="M256 266.667V330.667L229.333 314.667L202.667 330.667V266.667H256Z" fill="#F87600"/>
<path d="M362.666 96H138.667C132.776 96 128 100.776 128 106.667V213.333C128 219.224 132.776 224 138.667 224H362.666C368.557 224 373.333 219.224 373.333 213.333V106.667C373.333 100.776 368.557 96 362.666 96Z" fill="#00CF66"/>
<path d="M85.333 460.846L124.763 454.274C130.661 453.29 136.72 454.201 142.069 456.874L174.8 473.243C189.982 480.834 207.557 482.083 223.66 476.715L349.86 434.648C352.246 433.852 354.448 432.583 356.332 430.917C358.217 429.251 359.747 427.223 360.83 424.952C361.913 422.681 362.526 420.216 362.635 417.703C362.743 415.19 362.344 412.68 361.46 410.325V410.325C359.957 406.318 357.126 402.946 353.439 400.774C349.751 398.601 345.431 397.758 341.197 398.385L246.3 412.44C248.666 410.106 250.342 407.165 251.143 403.94V403.94C252.23 399.589 251.667 394.99 249.561 391.03C247.456 387.071 243.958 384.032 239.743 382.5L173.323 360.739C163.431 357.498 152.758 357.525 142.882 360.817L85.333 380V460.846Z" fill="#FFD188"/>
<path d="M426.667 146.807L385.806 165.087C377.584 168.766 368.678 170.667 359.67 170.667H254.639C250.549 170.667 246.591 169.216 243.47 166.572C240.349 163.928 238.267 160.263 237.594 156.228V156.228C237.214 153.947 237.295 151.613 237.834 149.364C238.372 147.115 239.357 144.997 240.729 143.135C242.101 141.273 243.832 139.706 245.821 138.526C247.81 137.346 250.016 136.577 252.307 136.265L312.857 128.018C316.28 127.552 319.538 126.262 322.352 124.259C325.166 122.256 327.451 119.6 329.012 116.518L339.394 96H177.268L193.847 75.111C199.656 67.7921 206.997 61.8339 215.354 57.655L256.587 38.755C269.991 32.0533 285.321 30.2676 299.906 33.709L426.667 61.9V146.807Z" fill="#FFD188"/>
<path d="M74.666 357.333H42.667C36.7758 357.333 32 362.109 32 368V463.999C32 469.89 36.7758 474.666 42.667 474.666H74.666C80.5572 474.666 85.333 469.89 85.333 463.999V368C85.333 362.109 80.5572 357.333 74.666 357.333Z" fill="#00CF66"/>
<path d="M469.333 42.667H437.334C431.443 42.667 426.667 47.4428 426.667 53.334V149.333C426.667 155.224 431.443 160 437.334 160H469.333C475.224 160 480 155.224 480 149.333V53.334C480 47.4428 475.224 42.667 469.333 42.667Z" fill="#00CF66"/>
<path d="M341.333 387.735V277.335C341.328 271.678 339.079 266.255 335.079 262.255C331.08 258.255 325.657 256.006 320 256H138.667C133.011 256.006 127.588 258.255 123.588 262.254C119.589 266.254 117.34 271.677 117.334 277.333V358.09L95.727 365.29C95.0796 360.157 92.5848 355.435 88.7091 352.007C84.8334 348.579 79.842 346.68 74.668 346.665H42.668C37.0112 346.67 31.5874 348.919 27.5874 352.919C23.5874 356.919 21.338 362.343 21.333 368V464C21.3386 469.656 23.5879 475.079 27.5874 479.079C31.5869 483.078 37.0099 485.327 42.666 485.333H74.666C79.2535 485.318 83.7132 483.821 87.381 481.065C91.0489 478.31 93.7286 474.444 95.021 470.042L126.521 464.797C130.194 464.177 133.969 464.744 137.297 466.417L170.031 482.787C178.795 487.195 188.345 489.823 198.131 490.517C207.916 491.212 217.742 489.96 227.041 486.834L353.241 444.772C356.987 443.523 360.443 441.531 363.402 438.916C366.361 436.301 368.763 433.116 370.463 429.552C372.164 425.988 373.129 422.118 373.3 418.173C373.471 414.227 372.845 410.288 371.46 406.59C369.172 400.598 364.993 395.516 359.557 392.113C354.12 388.711 347.722 387.173 341.333 387.735V387.735ZM74.667 464H42.667V368H74.667V464ZM245.333 277.333V311.828L234.823 305.521C233.165 304.524 231.268 303.998 229.333 303.998C227.399 303.998 225.502 304.524 223.844 305.521L213.334 311.828V277.333H245.333ZM138.666 277.333H192V330.666C192 332.554 192.502 334.407 193.452 336.038C194.403 337.669 195.77 339.018 197.413 339.948C199.055 340.877 200.915 341.355 202.803 341.331C204.69 341.307 206.537 340.783 208.156 339.812L229.333 327.1L250.51 339.808C252.129 340.779 253.976 341.303 255.863 341.327C257.751 341.351 259.611 340.873 261.254 339.944C262.896 339.014 264.263 337.665 265.214 336.034C266.164 334.403 266.666 332.55 266.666 330.662V277.333H320V390.743L262.247 399.3C262.202 393.385 260.337 387.627 256.905 382.808C253.474 377.989 248.643 374.343 243.068 372.365L176.646 350.6C164.574 346.672 151.563 346.705 139.511 350.694L138.667 350.975L138.666 277.333ZM351.208 420.359C350.746 421.339 350.09 422.214 349.278 422.931C348.467 423.649 347.518 424.193 346.489 424.531L220.289 466.594C213.648 468.831 206.629 469.727 199.64 469.23C192.65 468.734 185.828 466.855 179.57 463.703L146.83 447.333C139.473 443.639 131.13 442.386 123.012 443.755L96 448.255V387.689L146.26 370.937C153.965 368.38 162.287 368.359 170.005 370.875L236.1 392.521C237.858 393.161 239.312 394.438 240.174 396.099C241.036 397.76 241.244 399.683 240.756 401.49C240.267 403.296 239.119 404.853 237.537 405.854C235.956 406.854 234.056 407.224 232.215 406.891L160 393.76C158.617 393.498 157.195 393.512 155.818 393.801C154.44 394.091 153.133 394.65 151.973 395.447C150.812 396.244 149.821 397.263 149.056 398.445C148.291 399.627 147.768 400.949 147.516 402.334C147.265 403.719 147.29 405.14 147.59 406.516C147.891 407.891 148.46 409.194 149.266 410.348C150.072 411.502 151.099 412.485 152.287 413.241C153.475 413.996 154.801 414.509 156.188 414.75L228.4 427.88C232.29 428.589 236.285 428.483 240.132 427.569C243.979 426.655 247.594 424.952 250.749 422.569L342.77 408.937C344.589 408.674 346.443 409.04 348.027 409.974C349.61 410.907 350.827 412.353 351.478 414.072C351.863 415.083 352.038 416.162 351.992 417.243C351.945 418.324 351.678 419.385 351.208 420.359V420.359Z" fill="black"/>
<path d="M469.333 32H437.333C432.482 32.0092 427.779 33.6703 423.998 36.7097C420.217 39.749 417.584 43.9854 416.533 48.721L302.359 23.331C285.465 19.334 267.705 21.3602 252.145 29.06L210.583 48.115C200.842 53.0029 192.281 59.952 185.494 68.48L172.114 85.333H138.667C133.011 85.3391 127.588 87.5886 123.589 91.588C119.59 95.5874 117.34 101.01 117.334 106.666V213.333C117.34 218.989 119.59 224.412 123.589 228.411C127.588 232.41 133.011 234.66 138.667 234.666H362.667C368.323 234.66 373.746 232.41 377.745 228.411C381.744 224.412 383.994 218.989 384 213.333V177.2C386.074 176.482 388.138 175.724 390.161 174.818L419.876 161.525C421.835 164.341 424.445 166.643 427.484 168.233C430.524 169.824 433.902 170.657 437.333 170.662H469.333C474.989 170.656 480.412 168.406 484.411 164.407C488.41 160.408 490.66 154.985 490.666 149.329V53.329C490.659 47.6737 488.409 42.2522 484.41 38.2536C480.41 34.2551 474.988 32.0061 469.333 32V32ZM362.667 213.333H138.667V106.667H322.042L319.495 111.698C318.715 113.239 317.572 114.567 316.165 115.568C314.758 116.569 313.128 117.213 311.417 117.445L250.87 125.692C243.849 126.647 237.452 130.233 232.975 135.725C228.498 141.217 226.274 148.205 226.753 155.275C227.232 162.344 230.378 168.968 235.556 173.806C240.733 178.644 247.555 181.334 254.641 181.333H359.672C360.679 181.333 361.666 181.217 362.667 181.177V213.333ZM381.453 155.349C374.604 158.424 367.18 160.009 359.672 160H254.641C252.964 160.001 251.35 159.365 250.124 158.221C248.898 157.077 248.153 155.51 248.039 153.837C247.924 152.164 248.45 150.51 249.508 149.21C250.567 147.91 252.08 147.06 253.741 146.833L314.288 138.586C319.423 137.888 324.311 135.952 328.533 132.947C332.754 129.941 336.182 125.955 338.522 121.331L348.907 100.818C349.731 99.1926 350.124 97.3832 350.05 95.5625C349.976 93.7418 349.436 91.9704 348.483 90.4175C347.529 88.8646 346.194 87.5819 344.604 86.6918C343.014 85.8017 341.222 85.3339 339.4 85.333H199.354L202.203 81.742C206.968 75.739 212.97 70.8319 219.8 67.354L261.359 48.3C272.574 42.708 285.396 41.2307 297.588 44.126L416 70.456V139.895L381.453 155.349ZM469.333 149.333H437.333V53.333H469.333V149.333Z" fill="black"/>
</svg>
